{
	"accessors":[{
		"bufferView":0,
		"type":"SCALAR",
		"componentType":5123,
		"count":11364,
		"byteOffset":0,
		"min":[0],
		"max":[3794]
	},
	{
		"bufferView":1,
		"type":"VEC3",
		"componentType":5126,
		"count":3795,
		"byteOffset":0,
		"min":[-10.914999961853028,
		-4.029999732971191,
		-10.914999961853028],
		"max":[10.914999961853028,
		0.3499999940395355,
		10.914999961853028]
	},
	{
		"bufferView":1,
		"type":"VEC3",
		"componentType":5126,
		"count":3795,
		"byteOffset":12,
		"min":[-1.0,
		-1.0,
		-1.0],
		"max":[1.0,
		1.0,
		1.0]
	},
	{
		"bufferView":1,
		"type":"VEC2",
		"componentType":5126,
		"count":3795,
		"byteOffset":24,
		"min":[-7.105427357601002e-15,
		-0.000018227521650260316],
		"max":[1.0,
		1.0000181198120118]
	},
	{
		"bufferView":2,
		"type":"SCALAR",
		"componentType":5123,
		"count":828,
		"byteOffset":0,
		"min":[0],
		"max":[350]
	},
	{
		"bufferView":3,
		"type":"VEC3",
		"componentType":5126,
		"count":351,
		"byteOffset":0,
		"min":[-6.865000247955322,
		-1.100000023841858,
		-6.865000247955322],
		"max":[6.865000247955322,
		1.3300000429153443,
		6.865000247955322]
	},
	{
		"bufferView":3,
		"type":"VEC3",
		"componentType":5126,
		"count":351,
		"byteOffset":12,
		"min":[-1.0,
		-1.0,
		-1.0],
		"max":[1.0,
		1.0,
		1.0]
	},
	{
		"bufferView":3,
		"type":"VEC2",
		"componentType":5126,
		"count":351,
		"byteOffset":24,
		"min":[-5.465713026218868e-15,
		-3.053332191032751e-14],
		"max":[1.0,
		1.0]
	},
	{
		"bufferView":4,
		"type":"SCALAR",
		"componentType":5123,
		"count":1260,
		"byteOffset":0,
		"min":[0],
		"max":[427]
	},
	{
		"bufferView":5,
		"type":"VEC3",
		"componentType":5126,
		"count":428,
		"byteOffset":0,
		"min":[-5.484994888305664,
		0.0,
		-5.4850053787231449],
		"max":[5.484689235687256,
		0.20000000298023225,
		5.484999656677246]
	},
	{
		"bufferView":5,
		"type":"VEC3",
		"componentType":5126,
		"count":428,
		"byteOffset":12,
		"min":[-0.9999688267707825,
		-1.0,
		-1.0],
		"max":[0.9999063014984131,
		1.0,
		1.0]
	},
	{
		"bufferView":5,
		"type":"VEC2",
		"componentType":5126,
		"count":428,
		"byteOffset":24,
		"min":[0.0,
		-7.785432021290007e-12],
		"max":[1.0,
		1.0]
	},
	{
		"bufferView":6,
		"type":"SCALAR",
		"componentType":5123,
		"count":1194,
		"byteOffset":0,
		"min":[0],
		"max":[405]
	},
	{
		"bufferView":7,
		"type":"VEC3",
		"componentType":5126,
		"count":406,
		"byteOffset":0,
		"min":[-4.964995384216309,
		0.0,
		-4.965004920959473],
		"max":[4.964718818664551,
		5.5,
		4.965000152587891]
	},
	{
		"bufferView":7,
		"type":"VEC3",
		"componentType":5126,
		"count":406,
		"byteOffset":12,
		"min":[-0.9999688267707825,
		-1.0,
		-1.0],
		"max":[0.9999063014984131,
		1.0,
		1.0]
	},
	{
		"bufferView":7,
		"type":"VEC2",
		"componentType":5126,
		"count":406,
		"byteOffset":24,
		"min":[0.0,
		-3.322361830093712e-10],
		"max":[1.0,
		1.0]
	}],
	"nodes":[{
		"name":"Сб 39.SLDASM",
		"children":[1,
		2,
		3,
		4]
	},
	{
		"name":"Сб 39-1",
		"mesh":0
	},
	{
		"name":"Сб 39-2",
		"translation":[-4.250072516143177e-15,
		-2.950000047683716,
		-1.0408340855860843e-15],
		"rotation":[0.0,
		0.0,
		0.0,
		-1.0],
		"scale":[1.0,
		1.0,
		1.0],
		"mesh":1
	},
	{
		"name":"Сб 39-3",
		"translation":[-1.9259299443872359e-32,
		-0.20000000298023225,
		0.0],
		"rotation":[0.0,
		-0.20375671982765199,
		0.0,
		-0.9790215492248535],
		"scale":[1.0,
		1.0,
		1.0],
		"mesh":2
	},
	{
		"name":"Сб 39-4",
		"translation":[0.0,
		0.0,
		0.0],
		"rotation":[0.0,
		-0.046906478703022,
		0.0,
		0.9988992810249329],
		"scale":[1.0,
		1.0,
		1.0],
		"mesh":3
	}],
	"asset":{
		"version":"2.0",
		"generator":"Created using the official Cinema 4D glTF Exporter 1.000x284978"
	},
	"scenes":[{
		"nodes":[0]
	}],
	"meshes":[{
		"name":"Сб 39-1",
		"primitives":[{
			"attributes":{
				"POSITION":1,
				"NORMAL":2,
				"TEXCOORD_0":3
			},
			"indices":0,
			"material":0
		}]
	},
	{
		"name":"Сб 39-2",
		"primitives":[{
			"attributes":{
				"POSITION":5,
				"NORMAL":6,
				"TEXCOORD_0":7
			},
			"indices":4,
			"material":0
		}]
	},
	{
		"name":"Сб 39-3",
		"primitives":[{
			"attributes":{
				"POSITION":9,
				"NORMAL":10,
				"TEXCOORD_0":11
			},
			"indices":8,
			"material":0
		}]
	},
	{
		"name":"Сб 39-4",
		"primitives":[{
			"attributes":{
				"POSITION":13,
				"NORMAL":14,
				"TEXCOORD_0":15
			},
			"indices":12,
			"material":0
		}]
	}],
	"bufferViews":[{
		"buffer":0,
		"byteOffset":0,
		"byteLength":22728,
		"target":34963
	},
	{
		"buffer":0,
		"byteOffset":22728,
		"byteLength":121440,
		"target":34962,
		"byteStride":32
	},
	{
		"buffer":1,
		"byteOffset":0,
		"byteLength":1656,
		"target":34963
	},
	{
		"buffer":1,
		"byteOffset":1656,
		"byteLength":11232,
		"target":34962,
		"byteStride":32
	},
	{
		"buffer":2,
		"byteOffset":0,
		"byteLength":2520,
		"target":34963
	},
	{
		"buffer":2,
		"byteOffset":2520,
		"byteLength":13696,
		"target":34962,
		"byteStride":32
	},
	{
		"buffer":3,
		"byteOffset":0,
		"byteLength":2388,
		"target":34963
	},
	{
		"buffer":3,
		"byteOffset":2388,
		"byteLength":12992,
		"target":34962,
		"byteStride":32
	}],
	"buffers":[{
		"uri":"data:application/octet-stream;base64,",
		"byteLength":144168
	},
	{
		"uri":"data:application/octet-stream;base64,",
		"byteLength":12888
	},
	{
		"uri":"data:application/octet-stream;base64,",
		"byteLength":16216
	},
	{
		"uri":"data:application/octet-stream;base64,",
		"byteLength":15380
	}],
	"materials":[{
		"pbrMetallicRoughness":{
			"baseColorFactor":[0.7529411764705882,
			0.7529411764705882,
			0.7529411764705882,
			1.0],
			"metallicFactor":1.0,
			"roughnessFactor":0.6875
		},
		"emissiveFactor":[0.0,
		0.0,
		0.0],
		"alphaMode":"OPAQUE",
		"doubleSided":false,
		"name":"Mat.1"
	}]
}